<svg id="Layer_1" data-name="Layer 1" xmlns="http://www.w3.org/2000/svg" viewBox="0 0 477.99 66.14"><defs><style>.cls-1{fill:#23303d;}</style></defs><title>logo_avant_slate_white</title><path class="cls-1" d="M192.18,64.68h50.14a1.34,1.34,0,0,0,1.16-.67l5.38-9.31a0.22,0.22,0,0,1,.37,0L254.61,64a1.34,1.34,0,0,0,1.16.67h8.38a1.11,1.11,0,0,0,1-1.67L250,36.85a1.11,1.11,0,0,0-1.93,0l-10.39,18a0.48,0.48,0,0,1-.42.24h-30a0.22,0.22,0,0,1-.19-0.32L228,18.55a0.22,0.22,0,0,1,.37,0l4.56,7.89a0.48,0.48,0,0,1,0,.48L222.44,45a1.11,1.11,0,0,0,1,1.67h8.38A1.34,1.34,0,0,0,233,46l5.63-9.75,5.16-8.91a1.34,1.34,0,0,0,0-1.34L229.12,0.7a1.11,1.11,0,0,0-1.93,0L191.22,63A1.11,1.11,0,0,0,192.18,64.68Z" transform="translate(0)"/><path class="cls-1" d="M131.75,65.48a1.13,1.13,0,0,0,2,0l36-62.29a1.13,1.13,0,0,0-1-1.69H159.8a1.53,1.53,0,0,0-1.32.77L132.91,46.82a0.21,0.21,0,0,1-.37,0L107,2.27a1.53,1.53,0,0,0-1.32-.77H96.77a1.13,1.13,0,0,0-1,1.69Z" transform="translate(0)"/><path class="cls-1" d="M304.26,64.68h8a1.18,1.18,0,0,0,1.18-1.18V22a0.17,0.17,0,0,1,.28-0.12l49.09,44a1.14,1.14,0,0,0,1.9-.85V2.69a1.18,1.18,0,0,0-1.18-1.18h-8a1.18,1.18,0,0,0-1.18,1.18V44.16a0.17,0.17,0,0,1-.28.12L305,0.29a1.14,1.14,0,0,0-1.9.85V63.5A1.18,1.18,0,0,0,304.26,64.68Z" transform="translate(0)"/><path class="cls-1" d="M1.13,64.68H10a1.53,1.53,0,0,0,1.32-.77l7.49-13a0.48,0.48,0,0,1,.41-0.24H54.93a0.48,0.48,0,0,1,.41.24l7.49,13a1.53,1.53,0,0,0,1.32.77h8.89A1.13,1.13,0,0,0,74,63l-36-62.29a1.13,1.13,0,0,0-2,0L0.15,63A1.13,1.13,0,0,0,1.13,64.68ZM24.57,40.88L36.91,19.37a0.21,0.21,0,0,1,.37,0L49.61,40.88a0.21,0.21,0,0,1-.18.32H24.75A0.21,0.21,0,0,1,24.57,40.88Z" transform="translate(0)"/><path class="cls-1" d="M403.46,11H424a0.21,0.21,0,0,1,.21.21V63.56a1.13,1.13,0,0,0,1.13,1.13h7.88a1.13,1.13,0,0,0,1.13-1.13V11.16a0.21,0.21,0,0,1,.21-0.21h20.56a1.13,1.13,0,0,0,1.13-1.13V2.64a1.13,1.13,0,0,0-1.13-1.13H403.46a1.13,1.13,0,0,0-1.13,1.13V9.82A1.13,1.13,0,0,0,403.46,11Z" transform="translate(0)"/><path class="cls-1" d="M473.21,9.87l-1.47-2.48h-1.15V9.87h-1.17V3.22h2.92a2,2,0,0,1,2.17,2.08,1.86,1.86,0,0,1-1.57,2l1.62,2.61h-1.34Zm0.1-4.56a1,1,0,0,0-1.14-1.06h-1.59V6.36h1.59A1,1,0,0,0,473.31,5.31Z" transform="translate(0)"/><path class="cls-1" d="M471.76,12.59A6.22,6.22,0,1,1,478,6.36,6.23,6.23,0,0,1,471.76,12.59Zm0-11.53a5.31,5.31,0,1,0,5.31,5.31A5.32,5.32,0,0,0,471.76,1.05Z" transform="translate(0)"/></svg>